<?xml version="1.0" encoding="utf-8"?>
<!-- Generator: Adobe Illustrator 19.0.0, SVG Export Plug-In . SVG Version: 6.00 Build 0)  -->
<svg version="1.0" id="Layer_1" xmlns="http://www.w3.org/2000/svg" xmlns:xlink="http://www.w3.org/1999/xlink" x="0px" y="0px"
	 width="1400px" height="980px" viewBox="0 0 1400 980" enable-background="new 0 0 1400 980" xml:space="preserve">
<g id="XMLID_158_">
	<rect id="XMLID_131_" fill="#dbe6ff" width="1400" height="980"/>
	<linearGradient id="XMLID_79_" gradientUnits="userSpaceOnUse" x1="292.1413" y1="47.6357" x2="292.1413" y2="210.6861">
		<stop  offset="0" style="stop-color:#438DCB;stop-opacity:0.9674"/>
		<stop  offset="1" style="stop-color:#438DCB;stop-opacity:0"/>
	</linearGradient>
	<path id="XMLID_339_" fill="url(#XMLID_79_)" d="M398.5,152.6c0-14.2-11.5-25.7-25.7-25.7c-0.8,0-1.7,0-2.5,0.1
		c-4.6-18.2-21.2-31.7-40.9-31.7c-1.7,0-3.4,0.1-5,0.3c-8.7-14.7-24.8-24.6-43.2-24.6c-27.7,0-50.2,22.5-50.2,50.2
		c0,2,0.1,3.9,0.3,5.8c-13.8,0.1-25,11.3-25.3,25.1c-1.1-0.2-2.1-0.3-3.2-0.3c-9.4,0-17,7.6-17,17c0,9.4,7.6,17,17,17
		c4.5,0,8.6-1.7,11.6-4.6c3.9,8.7,12.6,14.8,22.8,14.8c6.3,0,12.1-2.3,16.4-6.2c5.4,15.8,20.4,27.2,38,27.2
		c15.2,0,28.4-8.4,35.2-20.8c5.8,3.7,12.7,5.8,20.1,5.8c16.5,0,30.4-10.6,35.5-25.3C391.8,172.6,398.5,163.4,398.5,152.6z"/>
	<linearGradient id="XMLID_80_" gradientUnits="userSpaceOnUse" x1="705.7643" y1="91.2185" x2="705.7643" y2="234.1297">
		<stop  offset="0" style="stop-color:#438DCB;stop-opacity:0.9674"/>
		<stop  offset="1" style="stop-color:#438DCB;stop-opacity:0"/>
	</linearGradient>
	<path id="XMLID_353_" fill="url(#XMLID_80_)" d="M798.9,183.2c0-12.5-10.1-22.6-22.6-22.6c-0.7,0-1.5,0-2.2,0.1
		c-4.1-16-18.6-27.8-35.8-27.8c-1.5,0-3,0.1-4.4,0.3c-7.7-12.9-21.7-21.6-37.8-21.6c-24.3,0-44,19.7-44,44c0,1.7,0.1,3.4,0.3,5.1
		c-12.1,0.1-21.9,9.9-22.1,22c-0.9-0.2-1.9-0.3-2.8-0.3c-8.2,0-14.9,6.7-14.9,14.9c0,8.2,6.7,14.9,14.9,14.9c3.9,0,7.5-1.5,10.2-4
		c3.4,7.7,11.1,13,20,13c5.5,0,10.6-2.1,14.4-5.4c4.7,13.9,17.9,23.8,33.3,23.8c13.3,0,24.9-7.4,30.9-18.2
		c5.1,3.2,11.1,5.1,17.6,5.1c14.4,0,26.7-9.3,31.1-22.2C793.1,200.8,798.9,192.7,798.9,183.2z"/>
	<linearGradient id="XMLID_81_" gradientUnits="userSpaceOnUse" x1="1016.735" y1="74.3876" x2="1016.735" y2="191.3547">
		<stop  offset="0" style="stop-color:#438DCB;stop-opacity:0.9674"/>
		<stop  offset="1" style="stop-color:#438DCB;stop-opacity:0"/>
	</linearGradient>
	<path id="XMLID_354_" fill="url(#XMLID_81_)" d="M1093,149.7c0-10.2-8.3-18.5-18.5-18.5c-0.6,0-1.2,0-1.8,0.1
		c-3.3-13.1-15.2-22.8-29.3-22.8c-1.2,0-2.4,0.1-3.6,0.2c-6.3-10.6-17.8-17.7-31-17.7c-19.9,0-36,16.1-36,36c0,1.4,0.1,2.8,0.2,4.2
		c-9.9,0.1-17.9,8.1-18.1,18c-0.8-0.1-1.5-0.2-2.3-0.2c-6.7,0-12.2,5.4-12.2,12.2c0,6.7,5.4,12.2,12.2,12.2c3.2,0,6.1-1.3,8.3-3.3
		c2.8,6.3,9.1,10.6,16.4,10.6c4.5,0,8.6-1.7,11.8-4.4c3.9,11.3,14.6,19.5,27.3,19.5c10.9,0,20.4-6,25.3-14.9
		c4.2,2.6,9.1,4.2,14.4,4.2c11.8,0,21.8-7.6,25.4-18.2C1088.2,164.1,1093,157.4,1093,149.7z"/>
	<linearGradient id="XMLID_82_" gradientUnits="userSpaceOnUse" x1="109.5641" y1="42.6054" x2="109.5641" y2="159.5725">
		<stop  offset="0" style="stop-color:#438DCB;stop-opacity:0.9674"/>
		<stop  offset="1" style="stop-color:#438DCB;stop-opacity:0"/>
	</linearGradient>
	<path id="XMLID_356_" fill="url(#XMLID_82_)" d="M185.8,117.9c0-10.2-8.3-18.5-18.5-18.5c-0.6,0-1.2,0-1.8,0.1
		c-3.3-13.1-15.2-22.8-29.3-22.8c-1.2,0-2.4,0.1-3.6,0.2c-6.3-10.6-17.8-17.7-31-17.7c-19.9,0-36,16.1-36,36c0,1.4,0.1,2.8,0.2,4.2
		c-9.9,0.1-17.9,8.1-18.1,18c-0.8-0.1-1.5-0.2-2.3-0.2c-6.7,0-12.2,5.4-12.2,12.2c0,6.7,5.4,12.2,12.2,12.2c3.2,0,6.1-1.3,8.3-3.3
		c2.8,6.3,9.1,10.6,16.4,10.6c4.5,0,8.6-1.7,11.8-4.4c3.9,11.3,14.6,19.5,27.3,19.5c10.9,0,20.4-6,25.3-14.9
		c4.2,2.6,9.1,4.2,14.4,4.2c11.8,0,21.8-7.6,25.4-18.2C181.1,132.3,185.8,125.7,185.8,117.9z"/>
	<linearGradient id="XMLID_83_" gradientUnits="userSpaceOnUse" x1="1252.3254" y1="84.1343" x2="1252.3254" y2="276.6027">
		<stop  offset="0" style="stop-color:#438DCB;stop-opacity:0.9674"/>
		<stop  offset="1" style="stop-color:#438DCB;stop-opacity:0"/>
	</linearGradient>
	<path id="XMLID_355_" fill="url(#XMLID_83_)" d="M1377.8,208.1c0-16.8-13.6-30.4-30.4-30.4c-1,0-2,0.1-3,0.1
		c-5.5-21.5-25-37.5-48.2-37.5c-2,0-4,0.1-5.9,0.4c-10.3-17.4-29.3-29.1-51-29.1c-32.7,0-59.2,26.5-59.2,59.2c0,2.3,0.1,4.6,0.4,6.8
		c-16.3,0.2-29.5,13.3-29.8,29.6c-1.2-0.2-2.5-0.4-3.8-0.4c-11.1,0-20,9-20,20c0,11.1,9,20,20,20c5.3,0,10.1-2.1,13.7-5.4
		c4.6,10.3,14.9,17.5,26.9,17.5c7.4,0,14.2-2.8,19.4-7.3c6.4,18.7,24.1,32.1,44.9,32.1c17.9,0,33.5-9.9,41.6-24.6
		c6.8,4.3,15,6.9,23.7,6.9c19.4,0,35.9-12.5,41.9-29.9C1370,231.7,1377.8,220.8,1377.8,208.1z"/>
	<linearGradient id="XMLID_84_" gradientUnits="userSpaceOnUse" x1="700" y1="388.0092" x2="700" y2="729.9954">
		<stop  offset="0" style="stop-color:#165F9A;stop-opacity:0.9674"/>
		<stop  offset="1" style="stop-color:#145A92;stop-opacity:0"/>
	</linearGradient>
	<polygon id="XMLID_39_" fill="url(#XMLID_84_)" points="1315.8,431.2 1315.8,550.5 1303.4,550.5 1303.4,368 1219.2,368 
		1219.2,550.5 1204.2,550.5 1204.2,442.5 1096.9,483.3 1096.9,550.5 1088.2,550.5 1088.2,226 1066.9,226 1066.9,193.2 1053.1,193.2 
		1053.1,159.1 1039,159.1 1039,193.2 1025.2,193.2 1025.2,226 1003.9,226 1003.9,550.5 988.4,550.5 988.4,278.1 958,278.1 958,253 
		873.7,253 873.7,550.5 865.2,550.5 865.2,203.3 781,203.3 781,550.5 768.6,550.5 768.6,450.5 684.4,450.5 684.4,550.5 662.9,550.5 
		662.9,361.1 662.9,340 588.3,340 588.3,361.1 562,361.1 562,550.5 553.4,550.5 553.4,180.6 532.1,180.6 532.1,144.1 518.3,144.1 
		518.3,106 504.2,106 504.2,144.1 490.4,144.1 490.4,180.6 469.1,180.6 469.1,550.5 445.1,550.5 445.1,442.5 337.7,483.3 
		337.7,550.5 321,550.5 321,317.2 321,292.5 258.6,292.5 258.6,317.2 236.7,317.2 236.7,550.5 216,550.5 216,349.2 131.7,349.2 
		131.7,550.5 111.9,550.5 111.9,222.3 27.7,222.3 27.7,550.5 0,550.5 0,808 1400,808 1400,617.3 1400,550.5 1400,431.2 	"/>
	<polygon id="XMLID_21_" fill="#16629C" points="1197,805.2 987.7,704.6 974.5,758.5 0,758.5 0,851.9 951.7,851.9 934.7,921.2 	"/>
	<linearGradient id="XMLID_85_" gradientUnits="userSpaceOnUse" x1="0" y1="787.4197" x2="1197" y2="787.4197">
		<stop  offset="0" style="stop-color:#4399D4;stop-opacity:0.9674"/>
		<stop  offset="1" style="stop-color:#92CEF1;stop-opacity:0.9674"/>
	</linearGradient>
	<polygon id="XMLID_16_" fill="url(#XMLID_85_)" points="1197,779.7 987.7,679.1 974.5,733 0,733 0,826.4 951.7,826.4 934.7,895.7 	
		"/>
	<polygon id="XMLID_48_" fill="#155E97" points="661.9,566.5 539.2,507.5 531.5,539.1 0,539.1 0,593.9 518.1,593.9 508.2,634.5 	"/>
	<linearGradient id="XMLID_86_" gradientUnits="userSpaceOnUse" x1="0" y1="552.4757" x2="661.9243" y2="552.4757">
		<stop  offset="0" style="stop-color:#3189CA;stop-opacity:0.9674"/>
		<stop  offset="1" style="stop-color:#6FA7CC;stop-opacity:0.9674"/>
	</linearGradient>
	<polygon id="XMLID_11_" fill="url(#XMLID_86_)" points="661.9,547.9 539.2,489 531.5,520.6 0,520.6 0,575.3 518.1,575.3 508.2,616 
			"/>
	<polygon id="XMLID_78_" fill="#12598F" points="1175,356.5 1092.9,317 1087.7,338.2 0,338.2 0,374.8 1078.7,374.8 1072.1,402 	"/>
	<linearGradient id="XMLID_87_" gradientUnits="userSpaceOnUse" x1="0" y1="348.6241" x2="1175" y2="348.6241">
		<stop  offset="0" style="stop-color:#2E83BF;stop-opacity:0.9674"/>
		<stop  offset="1" style="stop-color:#508DB6;stop-opacity:0.9674"/>
	</linearGradient>
	<polygon id="XMLID_49_" fill="url(#XMLID_87_)" points="1175,345.6 1092.9,306.1 1087.7,327.3 0,327.3 0,363.9 1078.7,363.9 
		1072.1,391.1 	"/>
	<g id="XMLID_6_">
		<path id="XMLID_147_" fill="#E8E5D1" d="M816.2,233.9c0,0-19.8,3.6-52.5,17.9c0,0-1.5,93.9,7.4,158.1c0,0,22.3,15.5,85.7,3.2
			l28.5-149l-32.2-16.9L816.2,233.9z"/>
		<path id="XMLID_157_" fill="#EEC19C" d="M854.7,241.7l-2.5,8.4c0,0,4.9,25.5-14.9,16.3c-19.8-9.2-22.4-28.9-22.4-28.9l4.4-12.1
			l2.1-5.7c18.3-1.9,35.4,15.3,35.4,15.3L854.7,241.7z"/>
		<path id="XMLID_155_" fill="#E3B188" d="M856.8,234.9l-2,6.9c-18.6-0.1-30.4-10.7-35.4-16.4l2.1-5.7
			C839.7,217.7,856.8,234.9,856.8,234.9z"/>
		<path id="XMLID_149_" fill="#EEC19C" d="M878.9,211.8l-5.7-35.2v-5.7c0,0-10.2-24.6-46.1-16.4c-35.8,8.2-20.8,59,5.1,74
			c0,0,16.4,8.9,41,8.9v-25.7H878.9z"/>
		<path id="XMLID_145_" fill="#2B1D14" d="M838,181.8v28.7h-4.1c0,0,2.7-19.5-4.4-20.1c-7.2-0.7-9.2,16.4-2,20.1l-6,9.1
			c0,0-17.9-15.6-17.5-45.7s46.8-37.5,64.5-25.9c0,0,8.9,1.7,7.8-8.9c0,0,22.3,22.5-3,37.5C873.2,176.7,838,168.8,838,181.8z"/>
		<path id="XMLID_148_" fill="#171917" d="M771,409.9v11.4c0,0,26.6,18.2,85.7,3.6V413C856.8,413,808.6,423.5,771,409.9z"/>
		<path id="XMLID_204_" fill="#252E33" d="M771,421.3l-60.9,295.3H723l86.6-223.3L827,716.6h12.9l16.9-291.7
			C856.8,424.9,806.8,433.1,771,421.3z"/>
		<polygon id="XMLID_218_" fill="#111416" points="827,716.6 827,733 879.2,733 879.2,726.6 839.9,716.6 		"/>
		<polygon id="XMLID_219_" fill="#111416" points="723,716.6 723,733 670.8,733 670.8,726.6 710.1,716.6 		"/>
		<path id="XMLID_232_" fill="#FFFFFF" d="M817.4,230.6c0,0,1.6,25.9,25,35.7c0,0,11.4,1.1,9.8-16.2l0.9-3.1c0,0,10.5,15.1-1.4,32.4
			l-9.3-9.3l-10.9,9.3c0,0-19-9.9-18.7-44.9L817.4,230.6z"/>
		<path id="XMLID_234_" fill="#9A1C1F" d="M839.7,268.4l-5.4,8.7c0,0,5.9,7.2,15.1,0l-2.6-9.2L839.7,268.4z"/>
		<polygon id="XMLID_236_" fill="#EEC19C" points="682.5,442.4 680,451.5 688.8,454.2 692,444.9 		"/>
		<g id="XMLID_5_">
			
				<rect id="XMLID_2_" x="603.9" y="477.3" transform="matrix(0.9807 0.1954 -0.1954 0.9807 114.6126 -121.0261)" fill="#171917" width="133.7" height="86.2"/>
			<polygon id="XMLID_10_" fill="#171917" points="659.1,457.2 654.9,478.3 660.8,479.5 663.9,463.9 698.7,470.9 695.6,486.4 
				701.6,487.6 705.8,466.5 			"/>
		</g>
		<path id="XMLID_237_" fill="#EEC19C" d="M688.8,454.2c0,0,8.4,8,3.2,16.6s-20,5.9-21.2-3.4c-1.1-9.3,9.1-15.9,9.1-15.9
			S686.5,451.3,688.8,454.2z"/>
		<polygon id="XMLID_4_" fill="#EEC19C" points="913.7,447.5 918,456 926.4,452 922.5,443 		"/>
		<path id="XMLID_3_" fill="#EEC19C" d="M926.4,452c0,0,11.6,0.3,13.5,10.2c1.9,9.9-10.9,17.8-18,11.7S918,456,918,456
			S922.6,451.4,926.4,452z"/>
		<path id="XMLID_233_" fill="#FBF8EC" d="M763.7,251.8c0,0-64.6,80.5-83.7,193.1l13.7,4.8c0,0,38.1-119.5,77.4-145.4
			C771,304.3,779.8,268.2,763.7,251.8z"/>
		<path id="XMLID_1_" fill="#FBF8EC" d="M885.3,264c0,0,4.9,86.7,41.1,183.4l-12.7,5c0,0-36.1-63.2-53.6-143.3
			C860.1,309.1,866.7,277,885.3,264z"/>
		<path id="XMLID_17_" fill="#465761" d="M798.9,391.8L798.9,391.8c-2.8,17.8-6.3,36.7-10.4,56.6c0,0-27.3,3.4-53.2-14.3
			c0,0,24.6-69.8,28.3-123.7l-3.7-58.5c0,0,35.8-15.8,53-17.9C812.8,233.9,814,297.3,798.9,391.8z"/>
		<path id="XMLID_8_" fill="#37454D" d="M888.2,264c0,0,4.6,81.2,38.2,178.4l-18.6,5.9l-39.1-97.6l1.9-36.4
			C870.6,314.3,875,284.7,888.2,264z"/>
		<path id="XMLID_18_" fill="#465761" d="M888.2,264l-13.7,50.3c-1.4,26.4-1.4,130.6-1.4,130.6l-20,3.4c2.1-19.1,3.1-40.6,3.6-62.2
			c1.4-68.9-3.6-139.1-3.6-139.1C865.4,250,888.2,264,888.2,264z"/>
		<path id="XMLID_7_" fill="#465761" d="M759.8,251.8c0,0-47.8,45.7-79.9,185.6l19.3,5.6c0,0,23.2-84.5,69.6-131.4
			C768.9,311.6,778.5,270.7,759.8,251.8z"/>
		<path id="XMLID_15_" fill="#36434A" d="M798.9,391.8L788,314.6l12.3-5.2l-15.3-8.5l27.7-67C812.8,233.9,814,297.3,798.9,391.8z"/>
		<path id="XMLID_14_" fill="#36434A" d="M860.8,306.4l7.9,4.9l-11.9,75.4l-0.1-0.6c1.4-68.9-3.6-139.1-3.6-139.1l17.5,54.1
			L860.8,306.4z"/>
		<path id="XMLID_28_" fill="#9A1C1F" d="M844.5,281.8c0,0,5.7,40.2-41,62.8c-46.7,22.6-61.2,29-73.5,47.5l-18,4.2v-22.8
			c0,0,23.5-26.2,66.3-37.9c42.8-11.7,59-37.7,61.4-56.7C839.8,279,844.3,279.4,844.5,281.8z"/>
	</g>
	<g id="XMLID_12_">
		<path id="XMLID_46_" fill="#CFCDBC" d="M469.4,299.1c0,0-8.7,1.6-23.2,7.9c0,0-0.7,41.5,3.3,69.9c0,0,9.8,6.8,37.9,1.4l11.3-71.8
			l-12.9-1.5L469.4,299.1z"/>
		<path id="XMLID_45_" fill="#D4AD8C" d="M486.4,302.6l-1.1,3.7c0,0,2.2,11.3-6.6,7.2c-8.7-4.1-9.9-12.8-9.9-12.8l1.9-5.4l0.9-2.5
			c8.1-0.8,15.6,6.8,15.6,6.8L486.4,302.6z"/>
		<path id="XMLID_44_" fill="#CA9F7A" d="M487.3,299.6l-0.9,3c-8.2,0-13.4-4.7-15.7-7.3l0.9-2.5C479.8,292,487.3,299.6,487.3,299.6z
			"/>
		<path id="XMLID_43_" fill="#D4AD8C" d="M497.1,289.4l-2.5-15.5v-2.5c0,0-4.5-10.9-20.4-7.2s-9.2,26.1,2.2,32.7
			c0,0,7.3,3.9,18.1,3.9v-11.3H497.1z"/>
		<path id="XMLID_41_" fill="#010200" d="M449.4,376.9v5c0,0,11.8,8,37.9,1.6v-5.2C487.3,378.3,466,382.9,449.4,376.9z"/>
		<path id="XMLID_40_" fill="#192126" d="M449.4,381.9l-26.9,130.5h5.7l38.3-98.7l15.4,98.7h5.7l-0.3-128.9
			C487.3,383.5,465.2,387.2,449.4,381.9z"/>
		<polygon id="XMLID_38_" fill="#000001" points="481.9,512.5 481.9,519.7 505,519.7 505,516.9 487.6,512.5 		"/>
		<polygon id="XMLID_37_" fill="#000001" points="428.2,512.5 428.2,519.7 405.1,519.7 405.1,516.9 422.5,512.5 		"/>
		<path id="XMLID_36_" fill="#E2E3E4" d="M469.9,297.7c0,0,0.7,11.5,11.1,15.8c0,0,5,0.5,4.3-7.1l0.4-1.3c0,0,4.6,6.7-0.6,14.3
			l-4.1-4.1l-4.8,4.1c0,0-8.4-4.4-8.3-19.8L469.9,297.7z"/>
		<path id="XMLID_35_" fill="#263182" d="M479.8,314.4l-2.4,3.8c0,0,2.6,3.2,6.7,0l-1.2-4.1L479.8,314.4z"/>
		<polygon id="XMLID_33_" fill="#D4AD8C" points="392.1,367 389.7,370.5 393.1,372.9 395.7,369.4 		"/>
		<g id="XMLID_30_">
			
				<rect id="XMLID_32_" x="346.7" y="379" transform="matrix(0.8683 0.4961 -0.4961 0.8683 247.0628 -134.209)" fill="#2A1402" width="59.1" height="38.1"/>
			<polygon id="XMLID_31_" fill="#2A1402" points="380.2,369.9 375.5,378.2 377.8,379.5 381.3,373.4 394.9,381.2 391.4,387.3 
				393.7,388.6 398.5,380.4 			"/>
		</g>
		<path id="XMLID_29_" fill="#D4AD8C" d="M393.1,372.9c0,0,2.4,4.5-1,7.4c-3.4,2.9-9.2-0.3-8.4-4.4c0.8-4.1,6-5.4,6-5.4
			S392.5,371.3,393.1,372.9z"/>
		<path id="XMLID_26_" fill="#DFDED4" d="M446.1,307c0,0-34.3,22.6-56.1,61.1l4.9,2.9c0,0,28.8-33.6,54.5-43.1
			C449.4,328,453.3,314.3,446.1,307z"/>
		<path id="XMLID_24_" fill="#3B4A53" d="M461.7,368.9L461.7,368.9c-1.3,7.9-2.8,16.2-4.6,25c0,0-12.1,1.5-23.5-6.3
			c0,0,10.9-30.8,12.5-54.7l-1.6-25.9c0,0,15.8-7,23.4-7.9C467.9,299.1,468.4,327.1,461.7,368.9z"/>
		<path id="XMLID_22_" fill="#3B4A53" d="M499.9,304l-4.8,30.7c-0.6,11.7-0.6,57.7-0.6,57.7l-8.8,1.5c0.9-8.5,1.4-17.9,1.6-27.5
			c0.6-30.5-1.6-61.5-1.6-61.5c0.4-0.8,1-3.5,1-3.5S499.9,304,499.9,304z"/>
		<path id="XMLID_20_" fill="#3B4A53" d="M444.6,307c0,0-25,11.4-54.6,58.2l7.3,5.1c0,0,23.3-27.6,49.4-40.6
			C446.8,329.8,449.7,317.6,444.6,307z"/>
		<path id="XMLID_19_" fill="#2B373E" d="M461.7,368.9l-4.8-34.1l5.4-2.3l-6.7-3.8l12.3-29.6C467.9,299.1,468.4,327.1,461.7,368.9z"
			/>
		<path id="XMLID_13_" fill="#2B373E" d="M489.1,331.2l3.5,2.2l-5.3,33.3l0-0.3c0.6-30.5-1.6-61.5-1.6-61.5l7.7,23.9L489.1,331.2z"
			/>
		<path id="XMLID_9_" fill="#3B4A53" d="M499.9,304l25.8,3l3,11.4l-32.8,2.8C496,321.3,497.6,307.3,499.9,304z"/>
		<path id="XMLID_23_" fill="#3B4A53" d="M520.2,307L509,277.3l7.5-2.2c0,0,17.2,27.5,19.8,39.4c0,0-0.8,3.5-7.5,4
			C522,319,520.2,307,520.2,307z"/>
		<path id="XMLID_27_" fill="#D4AD8C" d="M513,272.8c0,0-2.2-9-5.5-10.5s-11,0-11,0s-1.6,5,7.7,6.2l6.2,6.1L513,272.8z"/>
		<polygon id="XMLID_25_" fill="#CFCDBC" points="515.4,275.4 513.9,272.4 509,274.4 510.3,276.9 		"/>
		<path id="XMLID_42_" fill="#180800" d="M478,280.3c0,0-1.5-4.4-5-3.4c-3.5,1-1.1,9.7,2.5,10.2l-3.9,5.7c0,0-6.5-5.2-8.3-13.7
			c-1.8-8.5-0.3-20.8-5.5-22.8c0,0,11.7-3.2,16.2,0c0,0-1.3-3.2-4.5-3.2c0,0,20.3-3,26.5,15c0,0,0.8,4.2-1.4,4.7
			C492.3,273.4,477.1,266.6,478,280.3z"/>
		<path id="XMLID_34_" fill="#263182" d="M481,319.6c0,0,2.4,16.6-17,26c-19.3,9.3-25.3,12-30.4,19.7l-7.4,1.7v-9.4
			c0,0,9.7-10.8,27.4-15.7s24.4-15.6,25.4-23.5C479,318.5,480.9,318.6,481,319.6z"/>
	</g>
	<g id="XMLID_50_">
		<path id="XMLID_77_" fill="#B4B3A5" d="M1019,189.5c0,0-5.5,1-14.5,5c0,0-0.4,26,2,43.8c0,0,6.2,4.3,23.7,0.9l7.1-45l-8.1-1
			L1019,189.5z"/>
		<path id="XMLID_76_" fill="#BB997C" d="M1029.6,191.7l-0.7,2.3c0,0,1.4,7.1-4.1,4.5c-5.5-2.6-6.2-8-6.2-8l1.2-3.4l0.6-1.6
			c5.1-0.5,9.8,4.2,9.8,4.2L1029.6,191.7z"/>
		<path id="XMLID_75_" fill="#B28C6C" d="M1030.2,189.8l-0.6,1.9c-5.2,0-8.4-3-9.8-4.5l0.6-1.6
			C1025.5,185,1030.2,189.8,1030.2,189.8z"/>
		<path id="XMLID_74_" fill="#BB997C" d="M1036.3,183.4l-1.6-9.7v-1.6c0,0-2.8-6.8-12.8-4.5c-9.9,2.3-5.8,16.3,1.4,20.5
			c0,0,4.6,2.5,11.4,2.5v-7.1H1036.3z"/>
		<path id="XMLID_73_" d="M1006.5,238.2v3.2c0,0,7.4,5,23.7,1v-3.3C1030.2,239.1,1016.9,242,1006.5,238.2z"/>
		<path id="XMLID_72_" fill="#040D13" d="M1006.5,241.4l-16.9,81.8h3.6l24-61.8l13.7,61.8h3.6l-4.2-80.7
			C1030.2,242.4,1016.4,244.6,1006.5,241.4z"/>
		<polygon id="XMLID_71_" points="1030.9,323.1 1030.9,327.7 1045.3,327.7 1045.3,325.9 1034.4,323.1 		"/>
		<polygon id="XMLID_70_" points="993.2,323.1 993.2,327.7 978.7,327.7 978.7,325.9 989.6,323.1 		"/>
		<path id="XMLID_69_" fill="#C7C8CA" d="M1019.3,188.6c0,0,0.4,7.2,6.9,9.9c0,0,3.1,0.3,2.7-4.5l0.3-0.8c0,0,2.9,4.2-0.4,9
			l-2.6-2.6l-3,2.6c0,0-5.3-2.7-5.2-12.4L1019.3,188.6z"/>
		<path id="XMLID_68_" fill="#511C74" d="M1025.5,199.1l-1.5,2.4c0,0,1.6,2,4.2,0l-0.7-2.6L1025.5,199.1z"/>
		<polygon id="XMLID_67_" fill="#BB997C" points="970.6,232 969.1,234.2 971.2,235.7 972.8,233.5 		"/>
		<g id="XMLID_64_">
			
				<rect id="XMLID_66_" x="942.1" y="239.6" transform="matrix(0.8683 0.4961 -0.4961 0.8683 251.3246 -443.4615)" width="37" height="23.9"/>
			<polygon id="XMLID_65_" points="963.1,233.9 960.2,239 961.6,239.9 963.8,236 972.3,240.9 970.2,244.7 971.6,245.6 974.6,240.4 
							"/>
		</g>
		<path id="XMLID_63_" fill="#BB997C" d="M971.2,235.7c0,0,1.5,2.8-0.6,4.6c-2.1,1.8-5.8-0.2-5.3-2.8s3.8-3.4,3.8-3.4
			S970.8,234.7,971.2,235.7z"/>
		<path id="XMLID_62_" fill="#C4C4BC" d="M1004.4,194.5c0,0-21.5,14.2-35.1,38.3l3.1,1.8c0,0,18-21,34.1-27
			C1006.5,207.6,1008.9,199,1004.4,194.5z"/>
		<path id="XMLID_61_" fill="#2F3D45" d="M1014.2,233.2L1014.2,233.2c-0.8,4.9-1.7,10.2-2.9,15.7c0,0-7.6,0.9-14.7-4
			c0,0,6.8-19.3,7.8-34.2l-1-16.2c0,0,9.9-4.4,14.7-5C1018,189.5,1018.4,207,1014.2,233.2z"/>
		<path id="XMLID_60_" fill="#2F3D45" d="M1038.1,192.6l-3,19.2c-0.4,7.3-0.4,36.2-0.4,36.2l-5.5,0.9c0.6-5.3,0.9-11.2,1-17.2
			c0.4-19.1-1-38.5-1-38.5c0.2-0.5,0.7-2.2,0.7-2.2L1038.1,192.6z"/>
		<path id="XMLID_59_" fill="#2F3D45" d="M1003.5,194.5c0,0-15.6,7.1-34.2,36.5l4.6,3.2c0,0,14.6-17.3,31-25.4
			C1004.8,208.7,1006.7,201.1,1003.5,194.5z"/>
		<path id="XMLID_58_" fill="#1F2A31" d="M1014.2,233.2l-3-21.4l3.4-1.4l-4.2-2.3l7.7-18.6C1018,189.5,1018.4,207,1014.2,233.2z"/>
		<path id="XMLID_57_" fill="#1F2A31" d="M1031.3,209.6l2.2,1.4l-3.3,20.9l0-0.2c0.4-19.1-1-38.5-1-38.5l4.8,15L1031.3,209.6z"/>
		<path id="XMLID_56_" fill="#2F3D45" d="M1038.1,192.6l16.2,1.9l1.9,7.1l-20.5,1.8C1035.7,203.4,1036.6,194.6,1038.1,192.6z"/>
		<path id="XMLID_55_" fill="#2F3D45" d="M1050.8,194.5l-7-18.7l4.7-1.4c0,0,10.8,17.2,12.4,24.7c0,0-0.5,2.2-4.7,2.5
			C1052,202,1050.8,194.5,1050.8,194.5z"/>
		<path id="XMLID_54_" fill="#BB997C" d="M1046.3,173c0,0-1.4-5.6-3.4-6.6c-2.1-0.9-6.9,0-6.9,0s-1,3.1,4.8,3.9l3.9,3.8L1046.3,173z
			"/>
		<polygon id="XMLID_53_" fill="#B4B3A5" points="1047.8,174.6 1046.9,172.8 1043.8,174 1044.6,175.6 		"/>
		<path id="XMLID_51_" fill="#511C74" d="M1026.2,202.3c0,0,1.5,10.4-10.6,16.3c-12.1,5.8-15.8,7.5-19,12.3l-4.7,1.1v-5.9
			c0,0,6.1-6.8,17.2-9.8c11.1-3,15.3-9.8,15.9-14.7C1025,201.6,1026.2,201.7,1026.2,202.3z"/>
		<path id="XMLID_47_" d="M1024.4,177c0,0-0.6-1.7-2.7-1.4c-2.2,0.3-2.5,4.9,0,5.6l-1.3,4.4c0,0-4.7-2.7-5.4-8.4
			c-0.7-5.7,1-9.7,3.3-11.2c0,0,0.8-2.3-2.2-2.3c0,0,6.1-3,10.2,0c0,0,0.3-2-1.9-2.5c0,0,9.6-0.7,11.2,6.8c0,0,1.7-1.8,0.7-3.7
			c0,0,3.7,5-1.6,7.7c0,0-9.1-1.9-9.7,0.7C1025,172.8,1025.8,175.5,1024.4,177z"/>
	</g>
</g>
</svg>
