<svg id="Capa_1" enable-background="new 0 0 511.88 511.88" height="512" viewBox="0 0 511.88 511.88" width="512" xmlns="http://www.w3.org/2000/svg"><g><path d="m511.88 0v293.53h-120.41v-15c-307.785-34.186-264.388-30.12-286.06-30.12v-248.41z" fill="#80aaff"/><path d="m511.88 0v293.53h-120.41v-15l-82.83-9.2v-269.33z" fill="#69f"/><path d="m511.88 23.21-158.26 101.28c1.884 26.827-19.207 48.57-44.98 48.57-25.56-.01-46.869-21.53-44.97-48.57l-158.26-101.28v-23.21h19.39l151.25 96.8c17.81-18.633 47.367-18.647 65.19 0l151.26-96.8h19.38z" fill="#69f"/><path d="m511.88 23.21-158.26 101.28c1.884 26.827-19.207 48.57-44.98 48.57 0-90.772 0-90.24 0-90.24 12.8 0 24.38 5.38 32.6 13.98l151.26-96.8h19.38z" fill="#4d6aff"/><path d="m385.961 246.727 20.509 265.153h-406.47v-255.26l15.408-8.701 3.972-14.509h183.86l24.423 26.934z" fill="#edf5ff"/><path d="m391.408 245.366 15.062 11.254v255.26h-203.23v-278.47h183.84z" fill="#d5e8fe"/><path d="m406.47 256.62-158.26 101.29c1.916 27.043-19.455 48.56-44.98 48.56-25.56 0-46.869-21.541-44.97-48.57l-158.26-101.28v-23.21h19.38l151.26 96.8c17.811-18.634 47.393-18.62 65.19 0l151.25-96.8 8.946 10.444z" fill="#69f"/><g fill="#4d6aff"><path d="m406.47 256.62-158.26 101.29c1.91 26.955-19.354 48.55-44.97 48.56v-90.23c12.81 0 24.37 5.37 32.59 13.97l151.25-96.8h19.39z"/><path d="m255.94 421.587h90.353v30h-90.353z"/></g></g></svg>