<?xml version="1.0" encoding="iso-8859-1"?>
<!-- Generator: Adobe Illustrator 16.0.0, SVG Export Plug-In . SVG Version: 6.00 Build 0)  -->
<!DOCTYPE svg PUBLIC "-//W3C//DTD SVG 1.1//EN" "http://www.w3.org/Graphics/SVG/1.1/DTD/svg11.dtd">
<svg version="1.1" id="Capa_1" xmlns="http://www.w3.org/2000/svg" xmlns:xlink="http://www.w3.org/1999/xlink" x="0px" y="0px" width="407.428px" height="407.428px" viewBox="0 0 407.428 407.428" style="enable-background:new 0 0 407.428 407.428; fill:#FFFFFF" xml:space="preserve">
	<g>
		<g>
			<path d="M400.252,174.95c0,35.765-29.104,64.866-64.855,64.866c-1.942,0-3.88-0.094-5.786-0.272
			c-1.113-0.104-2.215-0.294-3.328-0.452c-0.798-0.119-1.605-0.189-2.403-0.34c-1.459-0.268-2.919-0.631-4.368-1.014
			c-0.431-0.111-0.872-0.179-1.303-0.306c-1.532-0.429-3.055-0.953-4.576-1.49c-0.348-0.115-0.688-0.209-1.019-0.336
			c-0.262-1.165-0.604-2.309-0.966-3.443c-0.074-0.199-0.111-0.41-0.168-0.598c-0.221-0.636-0.494-1.238-0.735-1.869
			c-0.272-0.683-0.504-1.376-0.782-2.026c-0.168-0.373-0.389-0.734-0.561-1.103c-0.431-0.881-0.841-1.764-1.324-2.61l-0.011-0.003
			c-0.683-1.197-1.438-2.363-2.226-3.487c-0.152-0.221-0.34-0.418-0.504-0.639c-1.479-2.018-3.107-3.917-4.944-5.654
			c-2.016-1.916-4.23-3.653-6.625-5.16c-1.376-0.872-2.83-1.648-4.315-2.352c-0.483-0.231-0.966-0.405-1.449-0.608
			c-1.039-0.446-2.078-0.862-3.147-1.229c-0.59-0.2-1.177-0.363-1.766-0.537c-1.008-0.304-2.026-0.556-3.064-0.776
			c-0.621-0.131-1.25-0.252-1.901-0.356c-0.42-0.074-0.828-0.184-1.26-0.246c-4.146-8.688-6.352-18.301-6.352-27.969
			c0-19.518,8.671-37.804,23.801-50.201c3.475-2.85,7.422-5.415,11.728-7.596c18.462-9.396,40.242-9.396,58.709,0
			C386.64,128.304,400.252,150.449,400.252,174.95z" />
			<path d="M335.384,77.295c15.046,0,27.288,12.187,27.408,27.21c-0.32-0.118-0.64-0.21-0.961-0.329
			c-0.524-0.191-1.034-0.348-1.563-0.538c-2.194-0.771-4.404-1.438-6.641-2.005c-0.52-0.118-1.013-0.247-1.512-0.354
			c-2.436-0.56-4.888-1-7.381-1.305c-0.262-0.034-0.542-0.086-0.783-0.113c-2.823-0.322-5.68-0.538-8.545-0.538
			c-2.877,0-5.723,0.216-8.546,0.538c-0.278,0.032-0.54,0.084-0.799,0.113c-2.478,0.305-4.935,0.745-7.37,1.305
			c-0.504,0.113-1.008,0.236-1.512,0.354c-2.247,0.567-4.462,1.233-6.656,2.005c-0.524,0.184-1.034,0.339-1.553,0.538
			c-0.327,0.113-0.652,0.205-0.967,0.329C308.088,89.477,320.33,77.295,335.384,77.295z" />
			<path d="M72.057,77.295c15.047,0,27.297,12.187,27.41,27.21c-0.318-0.118-0.646-0.21-0.961-0.329
			c-0.518-0.191-1.045-0.348-1.559-0.538c-2.194-0.771-4.415-1.438-6.656-2.005c-0.504-0.118-1.005-0.247-1.51-0.354
			c-2.435-0.56-4.892-1-7.375-1.305c-0.271-0.034-0.533-0.086-0.8-0.113c-2.824-0.322-5.667-0.538-8.544-0.538
			c-2.874,0-5.719,0.216-8.541,0.538c-0.268,0.032-0.532,0.084-0.8,0.113c-2.483,0.305-4.939,0.745-7.375,1.305
			c-0.504,0.113-1.006,0.236-1.51,0.354c-2.241,0.567-4.462,1.233-6.656,2.005c-0.519,0.184-1.042,0.339-1.558,0.538
			c-0.318,0.113-0.644,0.205-0.961,0.329C44.763,89.477,57.017,77.295,72.057,77.295z" />
			<path d="M42.702,117.154c18.459-9.396,40.252-9.396,58.711,0c4.299,2.181,8.245,4.748,11.728,7.596
			c15.115,12.396,23.793,30.683,23.793,50.201c0,9.672-2.189,19.281-6.354,27.969c-0.425,0.068-0.84,0.162-1.257,0.247
			c-0.64,0.104-1.27,0.226-1.903,0.356c-1.031,0.221-2.049,0.482-3.06,0.776c-0.595,0.168-1.186,0.337-1.771,0.537
			c-1.071,0.361-2.113,0.787-3.152,1.233c-0.478,0.198-0.972,0.382-1.439,0.603c-1.485,0.704-2.936,1.47-4.317,2.348
			c-2.396,1.506-4.611,3.249-6.632,5.17c-1.822,1.722-3.457,3.632-4.939,5.648c-0.163,0.221-0.339,0.419-0.496,0.64
			c-0.796,1.124-1.544,2.29-2.226,3.487c0,0,0,0,0,0.005c-0.483,0.845-0.898,1.727-1.326,2.607c-0.179,0.369-0.394,0.73-0.56,1.104
			c-0.296,0.66-0.527,1.343-0.79,2.016c-0.244,0.62-0.517,1.233-0.732,1.875c-0.066,0.192-0.107,0.393-0.167,0.592
			c-0.36,1.135-0.704,2.278-0.971,3.449c-0.394,0.152-0.796,0.262-1.195,0.395c-1.452,0.514-2.903,1.007-4.365,1.433
			c-0.784,0.22-1.574,0.352-2.359,0.551c-1.107,0.263-2.205,0.562-3.317,0.771c-1.17,0.216-2.346,0.341-3.525,0.488
			c-0.743,0.104-1.478,0.242-2.215,0.314c-1.923,0.169-3.858,0.273-5.795,0.273c-35.767,0-64.87-29.102-64.87-64.867
			C7.187,150.449,20.798,128.304,42.702,117.154z" />
			<path d="M56.093,303.288c-0.738,0.803-1.21,1.815-1.349,2.897c-1.811,13.647-13.494,23.941-27.174,23.941
			C12.368,330.127,0,317.761,0,302.563c0-0.61,0.097-1.202,0.179-1.795l0.149-1.213c0.076-0.693-0.016-1.387-0.236-2.025
			l5.058-87.353c0.092,0.164,0.194,0.327,0.284,0.494c0.184,0.342,0.383,0.662,0.573,1.002c0.902,1.623,1.869,3.207,2.884,4.752
			c0.291,0.437,0.57,0.876,0.866,1.307c1.242,1.795,2.539,3.555,3.924,5.245c0.066,0.083,0.139,0.151,0.205,0.24
			c1.329,1.597,2.729,3.118,4.181,4.594c0.373,0.373,0.748,0.761,1.128,1.124c1.446,1.423,2.942,2.797,4.502,4.099
			c0.118,0.101,0.231,0.21,0.349,0.306c1.682,1.386,3.438,2.677,5.238,3.916c0.426,0.304,0.861,0.571,1.292,0.859
			c1.538,1.008,3.107,1.964,4.719,2.867c0.35,0.189,0.688,0.399,1.042,0.598c1.916,1.025,3.876,1.976,5.887,2.83
			c0.43,0.189,0.877,0.341,1.312,0.53c1.672,0.683,3.371,1.312,5.1,1.874c0.506,0.162,1.005,0.341,1.517,0.499
			c2.108,0.64,4.247,1.208,6.429,1.659c0.339,0.073,0.682,0.115,1.021,0.178c1.887,0.362,3.801,0.651,5.738,0.872
			c0.606,0.083,1.208,0.141,1.816,0.199c2.272,0.198,4.564,0.346,6.885,0.346c2.066,0,4.124-0.114,6.181-0.283
			c0.636-0.057,1.266-0.143,1.898-0.21c1.447-0.158,2.892-0.351,4.328-0.593c0.698-0.121,1.399-0.246,2.097-0.384
			c1.452-0.288,2.898-0.629,4.335-1.008c0.604-0.158,1.205-0.293,1.809-0.462c0.166-0.052,0.334-0.089,0.494-0.132l1.011,3.78
			c0.262,1.853,0.64,3.579,1.075,5.244c0.113,0.44,0.242,0.882,0.365,1.313c0.134,0.462,0.241,0.955,0.391,1.405L56.093,303.288z" />
			<path d="M136.454,277.287c-12.685,0-24.205-7.528-29.339-19.191c-1.094-2.478-1.848-5.281-2.294-8.608
			c-0.031-0.227-0.081-0.446-0.134-0.667l-1.431-5.318c0.077-0.068,0.113-0.169,0.185-0.242c0.262-0.277,0.488-0.566,0.688-0.913
			c0.078-0.136,0.165-0.258,0.235-0.398c0.236-0.482,0.426-0.986,0.505-1.532c1.393-9.219,6.692-17.35,14.545-22.289
			c4.399-2.773,9.58-4.415,14.981-4.778c0.473-0.031,0.94-0.088,1.405-0.146c0.213-0.031,0.428-0.085,0.653-0.085
			c17.695,0,32.093,14.395,32.093,32.095c0,4.441-0.951,8.84-2.822,13.034C160.554,269.801,149.071,277.287,136.454,277.287z" />
			<path d="M179.173,247.428c0.037-0.745,0.118-1.479,0.118-2.235c0-21.628-16.131-39.518-36.987-42.385
			c3.504-8.85,5.376-18.317,5.376-27.857c0-22.103-9.607-42.815-26.308-57.222h164.689c-16.703,14.402-26.31,35.113-26.31,57.222
			c0,9.535,1.869,19.013,5.376,27.857c-20.861,2.867-36.988,20.752-36.988,42.385c0,0.756,0.075,1.49,0.106,2.235H179.173z" />
			<path d="M270.991,277.287c-12.624,0-24.1-7.486-29.27-19.056c-1.87-4.199-2.81-8.588-2.81-13.039
			c0-17.69,14.395-32.085,32.095-32.085c0.221,0,0.441,0.043,0.651,0.08c0.463,0.067,0.935,0.12,1.406,0.151
			c5.481,0.347,10.509,1.947,14.971,4.767c7.864,4.961,13.156,13.092,14.553,22.3c0.083,0.546,0.272,1.055,0.504,1.538
			c0.083,0.13,0.156,0.268,0.241,0.389c0.2,0.341,0.419,0.635,0.693,0.923c0.073,0.078,0.109,0.163,0.178,0.241l-1.439,5.309
			c-0.052,0.221-0.104,0.44-0.125,0.661c-0.451,3.317-1.207,6.137-2.298,8.62c0,0.01,0,0.01,0,0.01
			C295.191,269.759,283.668,277.287,270.991,277.287z" />
			<path d="M379.87,330.133c-13.681,0-25.366-10.295-27.183-23.941c-0.137-1.083-0.607-2.101-1.345-2.898l-39.962-44.054
			c0.146-0.43,0.268-0.933,0.388-1.396c0.121-0.431,0.252-0.872,0.363-1.313c0.429-1.668,0.808-3.392,1.07-5.243l1.013-3.773
			c0.174,0.052,0.353,0.094,0.54,0.125c0.558,0.168,1.108,0.288,1.681,0.431c1.47,0.388,2.96,0.745,4.451,1.034
			c0.683,0.132,1.365,0.268,2.059,0.373c1.459,0.247,2.897,0.445,4.368,0.608c0.618,0.067,1.249,0.137,1.883,0.199
			c2.059,0.169,4.116,0.283,6.179,0.283c2.321,0,4.609-0.132,6.876-0.34c0.62-0.06,1.229-0.122,1.828-0.185
			c1.932-0.231,3.843-0.52,5.711-0.883c0.348-0.067,0.709-0.114,1.049-0.177c2.163-0.452,4.306-1.021,6.406-1.649
			c0.524-0.168,1.039-0.347,1.554-0.52c1.711-0.562,3.391-1.171,5.038-1.854c0.462-0.184,0.924-0.341,1.376-0.556
			c1.994-0.862,3.937-1.795,5.838-2.814c0.388-0.198,0.761-0.43,1.135-0.64c1.579-0.883,3.106-1.817,4.607-2.805
			c0.462-0.309,0.924-0.598,1.365-0.912c1.784-1.228,3.517-2.516,5.187-3.885c0.158-0.127,0.319-0.272,0.473-0.399
			c1.512-1.27,2.976-2.592,4.373-3.979c0.408-0.39,0.792-0.787,1.202-1.191c1.416-1.455,2.792-2.945,4.083-4.499
			c0.096-0.116,0.199-0.215,0.295-0.324c1.375-1.686,2.665-3.43,3.904-5.225c0.311-0.441,0.589-0.892,0.893-1.343
			c1.014-1.545,1.964-3.108,2.867-4.709c0.189-0.337,0.388-0.661,0.577-1.009c0.083-0.167,0.188-0.33,0.282-0.504l5.041,87.173
			c-0.221,0.703-0.305,1.454-0.221,2.184l0.146,1.249c0.085,0.577,0.169,1.166,0.169,1.764
			C407.428,317.761,395.066,330.133,379.87,330.133z" />
		</g>
	</g>
	<g></g>
	<g></g>
	<g></g>
	<g></g>
	<g></g>
	<g></g>
	<g></g>
	<g></g>
	<g></g>
	<g></g>
	<g></g>
	<g></g>
	<g></g>
	<g></g>
	<g></g>
</svg>
